<svg xmlns="http://www.w3.org/2000/svg" viewBox="0 0 1200 630" width="1200" height="630" role="img" aria-label="AboutMeGame — drive and fly to discover how I work">
  <!-- AboutMeGame social share card (#54 follow-up). 1200x630, the Open Graph /
       Twitter summary_large_image canvas. Authored from the exact brand tokens
       so it reads as the real product, not a placeholder. Colours match
       public/favicon.svg and src/tokens.css verbatim:
         field   #14121f   (token color-bg)
         beacon  #ffcb47   (token color-accent) + 0.35 glow
         lamp    #fff3d4
         island  #5b8f4a / #49753c
         word fg #f5f4fb   (token color-fg), "Me" amber, 3px amber underline rule.
       Wordmark + hook are baked as vector path outlines (Arial-derived) so the
       image is font-independent and deterministic on any build host. All marks
       sit inside a center-weighted safe area (min 80px) so feed crops never clip.
       SOURCE OF TRUTH: edit here, then regenerate the committed PNG offline with
       a one-line npx step (NOT a repo/CI dependency):
         npx -y @resvg/resvg-js-cli public/share-card.svg public/share-card.png -->
  <rect width="1200" height="630" fill="#14121f"/>

  <!-- Brand lockup: amber sky-beacon rising from a low-poly island, scaled up
       from favicon.svg on its native 64-unit grid. -->
  <g transform="translate(516.80 96) scale(2.6)">
    <!-- Island base -->
    <path d="M14 46 L24 40 L40 40 L50 46 Z" fill="#5b8f4a"/>
    <path d="M14 46 L50 46 L46 50 L18 50 Z" fill="#49753c"/>
    <!-- Beacon glow column -->
    <rect x="29" y="10" width="6" height="32" rx="3" fill="#ffcb47" opacity="0.35"/>
    <!-- Beacon core + lamp -->
    <rect x="30.5" y="22" width="3" height="20" fill="#ffcb47"/>
    <circle cx="32" cy="18" r="7" fill="#ffcb47"/>
    <circle cx="32" cy="18" r="3.2" fill="#fff3d4"/>
  </g>

  <!-- Wordmark: About(fg) Me(amber) Game(fg), baked vector outlines. -->
  <path d="M191.27 253.51L229.10 348L208.35 348L200.10 326.54L162.33 326.54L154.53 348L134.29 348L171.10 253.51L191.27 253.51M168.20 310.62L193.98 310.62L180.96 275.55L168.20 310.62M255.14 348L238.32 348L238.32 253.51L256.43 253.51L256.43 287.54Q264.81 278 276.28 278Q288.79 278 296.97 287.06Q305.16 296.12 305.16 313.07Q305.16 330.60 296.81 340.07Q288.47 349.55 276.54 349.55Q270.68 349.55 264.97 346.61Q259.27 343.68 255.14 337.95L255.14 348M256.30 312.29Q256.30 322.93 259.66 328.02Q264.36 335.24 272.16 335.24Q278.15 335.24 282.38 330.11Q286.60 324.99 286.60 313.97Q286.60 302.24 282.34 297.05Q278.09 291.86 271.45 291.86Q264.94 291.86 260.62 296.92Q256.30 301.98 256.30 312.29M315.54 312.81Q315.54 303.79 319.98 295.34Q324.43 286.90 332.58 282.45Q340.74 278 350.79 278Q366.33 278 376.25 288.09Q386.18 298.18 386.18 313.58Q386.18 329.12 376.15 339.33Q366.13 349.55 350.92 349.55Q341.51 349.55 332.97 345.29Q324.43 341.04 319.98 332.82Q315.54 324.60 315.54 312.81M334.10 313.78Q334.10 323.96 338.93 329.37Q343.77 334.79 350.86 334.79Q357.95 334.79 362.75 329.37Q367.55 323.96 367.55 313.65Q367.55 303.59 362.75 298.18Q357.95 292.76 350.86 292.76Q343.77 292.76 338.93 298.18Q334.10 303.59 334.10 313.78M462.23 348L445.41 348L445.41 337.75Q441.67 343.23 435.58 346.39Q429.49 349.55 422.72 349.55Q415.83 349.55 410.35 346.52Q404.87 343.49 402.42 338.01Q399.97 332.53 399.97 322.86L399.97 279.55L418.08 279.55L418.08 311Q418.08 325.44 419.08 328.70Q420.08 331.95 422.72 333.85Q425.36 335.75 429.42 335.75Q434.07 335.75 437.74 333.21Q441.41 330.66 442.77 326.89Q444.12 323.12 444.12 308.43L444.12 279.55L462.23 279.55L462.23 348M500 279.55L512.38 279.55L512.38 293.99L500 293.99L500 321.57Q500 329.95 500.36 331.34Q500.71 332.72 501.97 333.63Q503.22 334.53 505.03 334.53Q507.54 334.53 512.31 332.79L513.86 346.84Q507.54 349.55 499.55 349.55Q494.65 349.55 490.72 347.90Q486.79 346.26 484.95 343.65Q483.11 341.04 482.41 336.59Q481.83 333.43 481.83 323.83L481.83 293.99L473.51 293.99L473.51 279.55L481.83 279.55L481.83 265.95L500 255.38" fill="#f5f4fb"/>
  <path d="M542.54 348L524.82 348L524.82 253.51L553.37 253.51L570.51 317.96L587.46 253.51L616.08 253.51L616.08 348L598.36 348L598.36 273.62L579.60 348L561.23 348L542.54 273.62L542.54 348M674.54 326.21L692.59 329.24Q689.11 339.17 681.60 344.36Q674.09 349.55 662.81 349.55Q644.96 349.55 636.38 337.88Q629.62 328.54 629.62 314.29Q629.62 297.28 638.51 287.64Q647.41 278 661 278Q676.28 278 685.11 288.09Q693.94 298.18 693.55 319L648.18 319Q648.37 327.05 652.56 331.53Q656.75 336.01 663 336.01Q667.26 336.01 670.16 333.69Q673.06 331.37 674.54 326.21M648.50 307.91L675.57 307.91Q675.38 300.05 671.51 295.95Q667.64 291.86 662.10 291.86Q656.17 291.86 652.30 296.18Q648.44 300.50 648.50 307.91" fill="#ffcb47"/>
  <path d="M774.25 313.26L752.40 313.26L752.40 297.34L793.52 297.34L793.52 334.98Q787.53 340.78 776.15 345.20Q764.77 349.61 753.11 349.61Q738.28 349.61 727.26 343.39Q716.24 337.17 710.70 325.60Q705.16 314.03 705.16 300.43Q705.16 285.67 711.34 274.20Q717.53 262.73 729.45 256.61Q738.54 251.90 752.08 251.90Q769.67 251.90 779.57 259.28Q789.46 266.66 792.30 279.68L773.35 283.22Q771.35 276.26 765.84 272.24Q760.33 268.21 752.08 268.21Q739.57 268.21 732.19 276.13Q724.81 284.06 724.81 299.66Q724.81 316.48 732.29 324.89Q739.77 333.30 751.88 333.30Q757.88 333.30 763.90 330.95Q769.93 328.60 774.25 325.25L774.25 313.26M824.52 300.43L808.09 297.47Q810.86 287.54 817.63 282.77Q824.39 278 837.74 278Q849.85 278 855.78 280.87Q861.71 283.74 864.13 288.16Q866.55 292.57 866.55 304.37L866.35 325.51Q866.35 334.53 867.22 338.82Q868.09 343.10 870.48 348L852.56 348Q851.85 346.20 850.82 342.65Q850.37 341.04 850.17 340.52Q845.53 345.04 840.25 347.29Q834.96 349.55 828.97 349.55Q818.40 349.55 812.31 343.81Q806.22 338.07 806.22 329.31Q806.22 323.51 808.99 318.96Q811.76 314.42 816.76 312Q821.75 309.59 831.16 307.78Q843.86 305.40 848.76 303.33L848.76 301.53Q848.76 296.31 846.18 294.08Q843.60 291.86 836.45 291.86Q831.61 291.86 828.91 293.76Q826.20 295.66 824.52 300.43M848.76 318.74L848.76 315.13Q845.28 316.29 837.74 317.90Q830.19 319.51 827.87 321.06Q824.33 323.57 824.33 327.44Q824.33 331.24 827.17 334.01Q830 336.79 834.38 336.79Q839.28 336.79 843.73 333.56Q847.02 331.11 848.05 327.57Q848.76 325.25 848.76 318.74M883.05 348L883.05 279.55L899.74 279.55L899.74 288.90Q908.70 278 921.07 278Q927.65 278 932.48 280.71Q937.32 283.42 940.41 288.90Q944.92 283.42 950.14 280.71Q955.36 278 961.29 278Q968.83 278 974.05 281.07Q979.27 284.13 981.85 290.06Q983.72 294.44 983.72 304.24L983.72 348L965.61 348L965.61 308.88Q965.61 298.69 963.74 295.73Q961.23 291.86 956.01 291.86Q952.20 291.86 948.85 294.18Q945.50 296.50 944.02 300.98Q942.54 305.46 942.54 315.13L942.54 348L924.42 348L924.42 310.49Q924.42 300.50 923.46 297.60Q922.49 294.70 920.46 293.28Q918.43 291.86 914.95 291.86Q910.76 291.86 907.41 294.12Q904.06 296.37 902.61 300.63Q901.16 304.88 901.16 314.74L901.16 348L883.05 348M1041.41 326.21L1059.45 329.24Q1055.97 339.17 1048.46 344.36Q1040.96 349.55 1029.68 349.55Q1011.82 349.55 1003.25 337.88Q996.48 328.54 996.48 314.29Q996.48 297.28 1005.38 287.64Q1014.27 278 1027.87 278Q1043.15 278 1051.98 288.09Q1060.81 298.18 1060.42 319L1015.05 319Q1015.24 327.05 1019.43 331.53Q1023.62 336.01 1029.87 336.01Q1034.12 336.01 1037.02 333.69Q1039.92 331.37 1041.41 326.21M1015.37 307.91L1042.44 307.91Q1042.25 300.05 1038.38 295.95Q1034.51 291.86 1028.97 291.86Q1023.04 291.86 1019.17 296.18Q1015.30 300.50 1015.37 307.91" fill="#f5f4fb"/>
  <!-- 3px amber underline rule (token color-accent), scaled to the card. -->
  <rect x="134.29" y="374" width="931.41" height="6" rx="3" fill="#ffcb47"/>

  <!-- One-line product hook (baked outlines, near-white at reduced weight). -->
  <path d="M146.52 470L138.77 470L138.77 448.53L146.17 448.53Q148.67 448.53 149.99 448.83Q151.84 449.26 153.14 450.37Q154.84 451.81 155.68 454.04Q156.53 456.27 156.53 459.15Q156.53 461.59 155.95 463.48Q155.38 465.37 154.49 466.61Q153.60 467.85 152.53 468.56Q151.47 469.27 149.97 469.63Q148.47 470 146.52 470M141.61 451.06L141.61 467.47L146.20 467.47Q148.32 467.47 149.53 467.07Q150.74 466.67 151.46 465.96Q152.47 464.95 153.03 463.24Q153.60 461.53 153.60 459.10Q153.60 455.73 152.49 453.92Q151.38 452.11 149.80 451.50Q148.66 451.06 146.13 451.06L141.61 451.06M162.71 470L160.07 470L160.07 454.44L162.44 454.44L162.44 456.80Q163.35 455.15 164.12 454.62Q164.89 454.09 165.81 454.09Q167.15 454.09 168.52 454.94L167.61 457.39Q166.65 456.82 165.68 456.82Q164.82 456.82 164.13 457.34Q163.44 457.86 163.15 458.78Q162.71 460.19 162.71 461.86L162.71 470M172.74 451.56L170.10 451.56L170.10 448.53L172.74 448.53L172.74 451.56M172.74 470L170.10 470L170.10 454.44L172.74 454.44L172.74 470M183.54 470L181.08 470L175.16 454.44L177.94 454.44L181.28 463.76Q181.82 465.27 182.28 466.89Q182.63 465.66 183.26 463.94L186.72 454.44L189.43 454.44L183.54 470M202.40 464.99L205.13 465.33Q204.48 467.71 202.74 469.03Q201 470.35 198.29 470.35Q194.88 470.35 192.88 468.25Q190.88 466.15 190.88 462.35Q190.88 458.43 192.90 456.26Q194.92 454.09 198.14 454.09Q201.26 454.09 203.24 456.22Q205.22 458.34 205.22 462.19Q205.22 462.43 205.20 462.90L193.60 462.90Q193.75 465.46 195.05 466.82Q196.35 468.18 198.30 468.18Q199.75 468.18 200.78 467.42Q201.80 466.66 202.40 464.99M193.75 460.73L202.43 460.73Q202.26 458.76 201.44 457.78Q200.18 456.26 198.17 456.26Q196.35 456.26 195.12 457.48Q193.88 458.69 193.75 460.73M226.93 468.08Q225.46 469.33 224.11 469.84Q222.75 470.35 221.20 470.35Q218.64 470.35 217.26 469.10Q215.88 467.85 215.88 465.90Q215.88 464.76 216.40 463.81Q216.92 462.87 217.76 462.29Q218.61 461.72 219.66 461.43Q220.44 461.23 222 461.04Q225.20 460.65 226.71 460.13Q226.72 459.58 226.72 459.44Q226.72 457.83 225.97 457.17Q224.96 456.27 222.97 456.27Q221.11 456.27 220.22 456.93Q219.34 457.58 218.91 459.23L216.34 458.88Q216.69 457.23 217.49 456.21Q218.30 455.19 219.82 454.64Q221.35 454.09 223.35 454.09Q225.34 454.09 226.59 454.56Q227.83 455.03 228.42 455.74Q229.01 456.45 229.24 457.53Q229.37 458.21 229.37 459.97L229.37 463.48Q229.37 467.16 229.54 468.13Q229.71 469.11 230.21 470L227.45 470Q227.04 469.18 226.93 468.08M226.71 463.16L226.71 462.19Q225.27 462.78 222.40 463.19Q220.77 463.42 220.10 463.72Q219.43 464.01 219.06 464.57Q218.69 465.14 218.69 465.83Q218.69 466.88 219.49 467.58Q220.29 468.29 221.83 468.29Q223.35 468.29 224.54 467.62Q225.73 466.95 226.28 465.80Q226.71 464.90 226.71 463.16M236.10 470L233.46 470L233.46 454.44L235.83 454.44L235.83 456.66Q237.55 454.09 240.78 454.09Q242.19 454.09 243.37 454.60Q244.55 455.10 245.13 455.92Q245.72 456.74 245.95 457.87Q246.10 458.60 246.10 460.43L246.10 470L243.46 470L243.46 460.54Q243.46 458.93 243.16 458.13Q242.85 457.33 242.07 456.85Q241.28 456.38 240.23 456.38Q238.54 456.38 237.32 457.45Q236.10 458.52 236.10 461.50L236.10 470M262.68 470L260.24 470L260.24 468.04Q258.76 470.35 255.89 470.35Q254.03 470.35 252.47 469.33Q250.91 468.30 250.05 466.46Q249.19 464.62 249.19 462.24Q249.19 459.91 249.97 458.01Q250.74 456.11 252.30 455.10Q253.85 454.09 255.77 454.09Q257.18 454.09 258.27 454.69Q259.37 455.28 260.06 456.23L260.06 448.53L262.68 448.53L262.68 470M251.90 462.24Q251.90 465.22 253.16 466.70Q254.42 468.18 256.14 468.18Q257.86 468.18 259.07 466.77Q260.28 465.36 260.28 462.46Q260.28 459.26 259.05 457.77Q257.82 456.27 256.02 456.27Q254.26 456.27 253.08 457.71Q251.90 459.15 251.90 462.24M278.42 470L275.79 470L275.79 456.49L273.46 456.49L273.46 454.44L275.79 454.44L275.79 452.79Q275.79 451.22 276.07 450.46Q276.45 449.43 277.41 448.80Q278.37 448.16 280.10 448.16Q281.21 448.16 282.56 448.42L282.17 450.72Q281.35 450.58 280.61 450.58Q279.41 450.58 278.91 451.09Q278.42 451.60 278.42 453.01L278.42 454.44L281.45 454.44L281.45 456.49L278.42 456.49L278.42 470M286.08 470L283.44 470L283.44 448.53L286.08 448.53L286.08 470M290.05 475.99L289.75 473.52Q290.62 473.75 291.26 473.75Q292.14 473.75 292.67 473.46Q293.20 473.16 293.53 472.64Q293.78 472.24 294.34 470.67Q294.41 470.45 294.57 470.03L288.67 454.44L291.51 454.44L294.75 463.45Q295.38 465.17 295.88 467.06Q296.33 465.24 296.96 463.51L300.29 454.44L302.92 454.44L297 470.26Q296.05 472.83 295.52 473.79Q294.82 475.10 293.91 475.71Q293.01 476.31 291.75 476.31Q290.98 476.31 290.05 475.99M323.65 468.08Q322.19 469.33 320.83 469.84Q319.48 470.35 317.92 470.35Q315.36 470.35 313.98 469.10Q312.60 467.85 312.60 465.90Q312.60 464.76 313.13 463.81Q313.65 462.87 314.49 462.29Q315.33 461.72 316.38 461.43Q317.16 461.23 318.73 461.04Q321.92 460.65 323.43 460.13Q323.44 459.58 323.44 459.44Q323.44 457.83 322.70 457.17Q321.69 456.27 319.69 456.27Q317.83 456.27 316.95 456.93Q316.06 457.58 315.64 459.23L313.06 458.88Q313.41 457.23 314.22 456.21Q315.02 455.19 316.55 454.64Q318.07 454.09 320.08 454.09Q322.07 454.09 323.31 454.56Q324.56 455.03 325.14 455.74Q325.73 456.45 325.96 457.53Q326.10 458.21 326.10 459.97L326.10 463.48Q326.10 467.16 326.26 468.13Q326.43 469.11 326.93 470L324.18 470Q323.77 469.18 323.65 468.08M323.43 463.16L323.43 462.19Q321.99 462.78 319.12 463.19Q317.50 463.42 316.82 463.72Q316.15 464.01 315.78 464.57Q315.42 465.14 315.42 465.83Q315.42 466.88 316.22 467.58Q317.01 468.29 318.55 468.29Q320.08 468.29 321.26 467.62Q322.45 466.95 323.01 465.80Q323.43 464.90 323.43 463.16M344.27 467.64L344.66 469.97Q343.54 470.21 342.66 470.21Q341.23 470.21 340.44 469.75Q339.65 469.30 339.32 468.56Q339 467.82 339 465.44L339 456.49L337.07 456.49L337.07 454.44L339 454.44L339 450.59L341.62 449.01L341.62 454.44L344.27 454.44L344.27 456.49L341.62 456.49L341.62 465.59Q341.62 466.72 341.76 467.04Q341.90 467.36 342.22 467.55Q342.53 467.74 343.12 467.74Q343.56 467.74 344.27 467.64M349.50 451.56L346.87 451.56L346.87 448.53L349.50 448.53L349.50 451.56M349.50 470L346.87 470L346.87 454.44L349.50 454.44L349.50 470M356.15 470L353.52 470L353.52 454.44L355.89 454.44L355.89 456.66Q357.60 454.09 360.84 454.09Q362.25 454.09 363.43 454.60Q364.61 455.10 365.19 455.92Q365.78 456.74 366.01 457.87Q366.16 458.60 366.16 460.43L366.16 470L363.52 470L363.52 460.54Q363.52 458.93 363.22 458.13Q362.91 457.33 362.12 456.85Q361.34 456.38 360.29 456.38Q358.60 456.38 357.38 457.45Q356.15 458.52 356.15 461.50L356.15 470M370.09 475.99L369.79 473.52Q370.66 473.75 371.30 473.75Q372.18 473.75 372.71 473.46Q373.23 473.16 373.57 472.64Q373.82 472.24 374.38 470.67Q374.45 470.45 374.61 470.03L368.71 454.44L371.55 454.44L374.79 463.45Q375.42 465.17 375.92 467.06Q376.37 465.24 377 463.51L380.32 454.44L382.96 454.44L377.04 470.26Q376.09 472.83 375.56 473.79Q374.86 475.10 373.95 475.71Q373.04 476.31 371.78 476.31Q371.02 476.31 370.09 475.99M399.16 470L396.41 470L391.65 454.44L394.37 454.44L396.85 463.42L397.77 466.76Q397.83 466.51 398.58 463.55L401.05 454.44L403.76 454.44L406.09 463.47L406.87 466.44L407.76 463.44L410.43 454.44L412.99 454.44L408.13 470L405.39 470L402.91 460.68L402.31 458.03L399.16 470M414.22 462.22Q414.22 457.90 416.62 455.82Q418.63 454.09 421.52 454.09Q424.72 454.09 426.76 456.19Q428.80 458.30 428.80 462Q428.80 465 427.90 466.73Q426.99 468.45 425.27 469.40Q423.55 470.35 421.52 470.35Q418.25 470.35 416.24 468.26Q414.22 466.16 414.22 462.22M416.93 462.22Q416.93 465.21 418.23 466.70Q419.54 468.18 421.52 468.18Q423.48 468.18 424.78 466.69Q426.09 465.20 426.09 462.13Q426.09 459.25 424.78 457.76Q423.46 456.27 421.52 456.27Q419.54 456.27 418.23 457.75Q416.93 459.23 416.93 462.22M434.49 470L431.86 470L431.86 454.44L434.23 454.44L434.23 456.80Q435.14 455.15 435.91 454.62Q436.68 454.09 437.60 454.09Q438.93 454.09 440.31 454.94L439.40 457.39Q438.44 456.82 437.47 456.82Q436.60 456.82 435.92 457.34Q435.23 457.86 434.93 458.78Q434.49 460.19 434.49 461.86L434.49 470M444.46 470L441.82 470L441.82 448.53L444.46 448.53L444.46 470M461.08 470L458.64 470L458.64 468.04Q457.16 470.35 454.28 470.35Q452.42 470.35 450.86 469.33Q449.30 468.30 448.45 466.46Q447.59 464.62 447.59 462.24Q447.59 459.91 448.37 458.01Q449.14 456.11 450.70 455.10Q452.25 454.09 454.17 454.09Q455.57 454.09 456.67 454.69Q457.77 455.28 458.46 456.23L458.46 448.53L461.08 448.53L461.08 470M450.30 462.24Q450.30 465.22 451.56 466.70Q452.82 468.18 454.53 468.18Q456.26 468.18 457.47 466.77Q458.68 465.36 458.68 462.46Q458.68 459.26 457.45 457.77Q456.22 456.27 454.42 456.27Q452.66 456.27 451.48 457.71Q450.30 459.15 450.30 462.24M479.32 467.64L479.70 469.97Q478.59 470.21 477.71 470.21Q476.27 470.21 475.48 469.75Q474.69 469.30 474.37 468.56Q474.05 467.82 474.05 465.44L474.05 456.49L472.11 456.49L472.11 454.44L474.05 454.44L474.05 450.59L476.67 449.01L476.67 454.44L479.32 454.44L479.32 456.49L476.67 456.49L476.67 465.59Q476.67 466.72 476.81 467.04Q476.95 467.36 477.26 467.55Q477.58 467.74 478.16 467.74Q478.60 467.74 479.32 467.64M480.92 462.22Q480.92 457.90 483.32 455.82Q485.32 454.09 488.21 454.09Q491.42 454.09 493.45 456.19Q495.49 458.30 495.49 462Q495.49 465 494.59 466.73Q493.69 468.45 491.97 469.40Q490.25 470.35 488.21 470.35Q484.94 470.35 482.93 468.26Q480.92 466.16 480.92 462.22M483.63 462.22Q483.63 465.21 484.93 466.70Q486.23 468.18 488.21 468.18Q490.17 468.18 491.48 466.69Q492.78 465.20 492.78 462.13Q492.78 459.25 491.47 457.76Q490.16 456.27 488.21 456.27Q486.23 456.27 484.93 457.75Q483.63 459.23 483.63 462.22M519.46 470L517.01 470L517.01 468.04Q515.53 470.35 512.66 470.35Q510.80 470.35 509.24 469.33Q507.68 468.30 506.82 466.46Q505.96 464.62 505.96 462.24Q505.96 459.91 506.74 458.01Q507.52 456.11 509.07 455.10Q510.62 454.09 512.54 454.09Q513.95 454.09 515.05 454.69Q516.15 455.28 516.83 456.23L516.83 448.53L519.46 448.53L519.46 470M508.67 462.24Q508.67 465.22 509.93 466.70Q511.19 468.18 512.91 468.18Q514.64 468.18 515.84 466.77Q517.05 465.36 517.05 462.46Q517.05 459.26 515.82 457.77Q514.59 456.27 512.79 456.27Q511.03 456.27 509.85 457.71Q508.67 459.15 508.67 462.24M526.25 451.56L523.62 451.56L523.62 448.53L526.25 448.53L526.25 451.56M526.25 470L523.62 470L523.62 454.44L526.25 454.44L526.25 470M529.21 465.36L531.82 464.95Q532.04 466.51 533.04 467.35Q534.05 468.18 535.85 468.18Q537.66 468.18 538.54 467.44Q539.42 466.70 539.42 465.71Q539.42 464.81 538.65 464.30Q538.10 463.95 535.95 463.41Q533.05 462.68 531.93 462.14Q530.81 461.61 530.23 460.66Q529.65 459.72 529.65 458.57Q529.65 457.53 530.13 456.65Q530.60 455.76 531.42 455.18Q532.04 454.72 533.10 454.41Q534.16 454.09 535.38 454.09Q537.21 454.09 538.59 454.62Q539.98 455.15 540.64 456.05Q541.30 456.95 541.55 458.46L538.97 458.81Q538.79 457.61 537.95 456.93Q537.11 456.26 535.57 456.26Q533.75 456.26 532.98 456.86Q532.20 457.46 532.20 458.27Q532.20 458.78 532.52 459.19Q532.84 459.61 533.53 459.89Q533.93 460.04 535.86 460.57Q538.66 461.31 539.77 461.79Q540.87 462.27 541.50 463.17Q542.13 464.08 542.13 465.43Q542.13 466.75 541.36 467.91Q540.59 469.08 539.14 469.71Q537.69 470.35 535.86 470.35Q532.83 470.35 531.24 469.09Q529.65 467.83 529.21 465.36M555.42 464.30L558.01 464.64Q557.59 467.32 555.83 468.84Q554.08 470.35 551.54 470.35Q548.34 470.35 546.40 468.26Q544.46 466.18 544.46 462.28Q544.46 459.76 545.30 457.87Q546.13 455.98 547.84 455.04Q549.54 454.09 551.55 454.09Q554.08 454.09 555.70 455.37Q557.31 456.66 557.76 459.01L555.20 459.41Q554.83 457.84 553.90 457.05Q552.97 456.26 551.65 456.26Q549.66 456.26 548.42 457.69Q547.17 459.12 547.17 462.21Q547.17 465.34 548.37 466.76Q549.57 468.18 551.51 468.18Q553.06 468.18 554.10 467.23Q555.14 466.28 555.42 464.30M559.28 462.22Q559.28 457.90 561.69 455.82Q563.69 454.09 566.58 454.09Q569.79 454.09 571.82 456.19Q573.86 458.30 573.86 462Q573.86 465 572.96 466.73Q572.06 468.45 570.34 469.40Q568.62 470.35 566.58 470.35Q563.31 470.35 561.30 468.26Q559.28 466.16 559.28 462.22M561.99 462.22Q561.99 465.21 563.30 466.70Q564.60 468.18 566.58 468.18Q568.54 468.18 569.85 466.69Q571.15 465.20 571.15 462.13Q571.15 459.25 569.84 457.76Q568.53 456.27 566.58 456.27Q564.60 456.27 563.30 457.75Q561.99 459.23 561.99 462.22M583.73 470L581.27 470L575.35 454.44L578.14 454.44L581.48 463.76Q582.02 465.27 582.47 466.89Q582.82 465.66 583.45 463.94L586.91 454.44L589.62 454.44L583.73 470M602.60 464.99L605.32 465.33Q604.68 467.71 602.94 469.03Q601.19 470.35 598.48 470.35Q595.07 470.35 593.07 468.25Q591.07 466.15 591.07 462.35Q591.07 458.43 593.09 456.26Q595.11 454.09 598.34 454.09Q601.46 454.09 603.44 456.22Q605.41 458.34 605.41 462.19Q605.41 462.43 605.40 462.90L593.80 462.90Q593.94 465.46 595.25 466.82Q596.55 468.18 598.50 468.18Q599.95 468.18 600.97 467.42Q602 466.66 602.60 464.99M593.94 460.73L602.63 460.73Q602.45 458.76 601.63 457.78Q600.37 456.26 598.37 456.26Q596.55 456.26 595.31 457.48Q594.07 458.69 593.94 460.73M611.24 470L608.61 470L608.61 454.44L610.98 454.44L610.98 456.80Q611.89 455.15 612.66 454.62Q613.43 454.09 614.35 454.09Q615.68 454.09 617.06 454.94L616.15 457.39Q615.18 456.82 614.22 456.82Q613.35 456.82 612.66 457.34Q611.98 457.86 611.68 458.78Q611.24 460.19 611.24 461.86L611.24 470M629.60 470L626.96 470L626.96 448.53L629.60 448.53L629.60 456.23Q631.44 454.09 634.26 454.09Q635.98 454.09 637.26 454.77Q638.53 455.45 639.08 456.66Q639.63 457.86 639.63 460.14L639.63 470L636.99 470L636.99 460.14Q636.99 458.16 636.14 457.26Q635.28 456.36 633.71 456.36Q632.54 456.36 631.51 456.97Q630.48 457.58 630.04 458.62Q629.60 459.66 629.60 461.49L629.60 470M642.66 462.22Q642.66 457.90 645.07 455.82Q647.07 454.09 649.96 454.09Q653.17 454.09 655.20 456.19Q657.24 458.30 657.24 462Q657.24 465 656.34 466.73Q655.44 468.45 653.72 469.40Q651.99 470.35 649.96 470.35Q646.69 470.35 644.68 468.26Q642.66 466.16 642.66 462.22M645.37 462.22Q645.37 465.21 646.68 466.70Q647.98 468.18 649.96 468.18Q651.92 468.18 653.23 466.69Q654.53 465.20 654.53 462.13Q654.53 459.25 653.22 457.76Q651.91 456.27 649.96 456.27Q647.98 456.27 646.68 457.75Q645.37 459.23 645.37 462.22M665.95 470L663.20 470L658.44 454.44L661.16 454.44L663.64 463.42L664.56 466.76Q664.62 466.51 665.37 463.55L667.84 454.44L670.55 454.44L672.88 463.47L673.66 466.44L674.55 463.44L677.22 454.44L679.78 454.44L674.92 470L672.18 470L669.70 460.68L669.10 458.03L665.95 470M693.99 470L691.15 470L691.15 448.53L693.99 448.53L693.99 470M709.43 468.05L709.43 470L706.98 470L706.98 448.53L709.62 448.53L709.62 456.19Q711.29 454.09 713.88 454.09Q715.32 454.09 716.60 454.67Q717.88 455.25 718.71 456.30Q719.54 457.34 720.01 458.82Q720.48 460.30 720.48 461.99Q720.48 465.99 718.50 468.17Q716.52 470.35 713.75 470.35Q711 470.35 709.43 468.05M709.40 462.10Q709.40 464.90 710.16 466.15Q711.41 468.18 713.53 468.18Q715.26 468.18 716.52 466.68Q717.78 465.18 717.78 462.21Q717.78 459.16 716.57 457.71Q715.36 456.26 713.65 456.26Q711.92 456.26 710.66 457.76Q709.40 459.26 709.40 462.10M736.24 470L733.88 470L733.88 467.71Q732.06 470.35 728.94 470.35Q727.57 470.35 726.37 469.82Q725.18 469.30 724.60 468.50Q724.02 467.70 723.79 466.54Q723.63 465.77 723.63 464.08L723.63 454.44L726.26 454.44L726.26 463.07Q726.26 465.14 726.42 465.85Q726.67 466.89 727.48 467.49Q728.28 468.08 729.47 468.08Q730.66 468.08 731.70 467.47Q732.74 466.87 733.17 465.82Q733.60 464.77 733.60 462.78L733.60 454.44L736.24 454.44L736.24 470M743.02 451.56L740.38 451.56L740.38 448.53L743.02 448.53L743.02 451.56M743.02 470L740.38 470L740.38 454.44L743.02 454.44L743.02 470M749.61 470L746.98 470L746.98 448.53L749.61 448.53L749.61 470M766.24 470L763.79 470L763.79 468.04Q762.31 470.35 759.44 470.35Q757.58 470.35 756.02 469.33Q754.46 468.30 753.60 466.46Q752.75 464.62 752.75 462.24Q752.75 459.91 753.52 458.01Q754.30 456.11 755.85 455.10Q757.40 454.09 759.32 454.09Q760.73 454.09 761.83 454.69Q762.93 455.28 763.62 456.23L763.62 448.53L766.24 448.53L766.24 470M755.46 462.24Q755.46 465.22 756.72 466.70Q757.98 468.18 759.69 468.18Q761.42 468.18 762.63 466.77Q763.84 465.36 763.84 462.46Q763.84 459.26 762.60 457.77Q761.37 456.27 759.57 456.27Q757.81 456.27 756.64 457.71Q755.46 459.15 755.46 462.24M777.66 465.36L780.27 464.95Q780.49 466.51 781.49 467.35Q782.50 468.18 784.30 468.18Q786.12 468.18 786.99 467.44Q787.87 466.70 787.87 465.71Q787.87 464.81 787.10 464.30Q786.56 463.95 784.40 463.41Q781.50 462.68 780.38 462.14Q779.26 461.61 778.68 460.66Q778.10 459.72 778.10 458.57Q778.10 457.53 778.58 456.65Q779.06 455.76 779.88 455.18Q780.49 454.72 781.55 454.41Q782.61 454.09 783.83 454.09Q785.66 454.09 787.05 454.62Q788.43 455.15 789.09 456.05Q789.75 456.95 790 458.46L787.42 458.81Q787.24 457.61 786.40 456.93Q785.56 456.26 784.02 456.26Q782.20 456.26 781.43 456.86Q780.65 457.46 780.65 458.27Q780.65 458.78 780.97 459.19Q781.30 459.61 781.98 459.89Q782.38 460.04 784.31 460.57Q787.11 461.31 788.22 461.79Q789.32 462.27 789.95 463.17Q790.58 464.08 790.58 465.43Q790.58 466.75 789.81 467.91Q789.05 469.08 787.60 469.71Q786.15 470.35 784.31 470.35Q781.28 470.35 779.69 469.09Q778.10 467.83 777.66 465.36M792.74 462.22Q792.74 457.90 795.14 455.82Q797.15 454.09 800.03 454.09Q803.24 454.09 805.28 456.19Q807.31 458.30 807.31 462Q807.31 465 806.41 466.73Q805.51 468.45 803.79 469.40Q802.07 470.35 800.03 470.35Q796.77 470.35 794.75 468.26Q792.74 466.16 792.74 462.22M795.45 462.22Q795.45 465.21 796.75 466.70Q798.05 468.18 800.03 468.18Q801.99 468.18 803.30 466.69Q804.60 465.20 804.60 462.13Q804.60 459.25 803.29 457.76Q801.98 456.27 800.03 456.27Q798.05 456.27 796.75 457.75Q795.45 459.23 795.45 462.22M813.65 470L811.03 470L811.03 456.49L808.70 456.49L808.70 454.44L811.03 454.44L811.03 452.79Q811.03 451.22 811.31 450.46Q811.69 449.43 812.65 448.80Q813.61 448.16 815.34 448.16Q816.45 448.16 817.80 448.42L817.40 450.72Q816.58 450.58 815.85 450.58Q814.65 450.58 814.15 451.09Q813.65 451.60 813.65 453.01L813.65 454.44L816.69 454.44L816.69 456.49L813.65 456.49L813.65 470M824.49 467.64L824.88 469.97Q823.76 470.21 822.88 470.21Q821.45 470.21 820.66 469.75Q819.87 469.30 819.54 468.56Q819.22 467.82 819.22 465.44L819.22 456.49L817.29 456.49L817.29 454.44L819.22 454.44L819.22 450.59L821.84 449.01L821.84 454.44L824.49 454.44L824.49 456.49L821.84 456.49L821.84 465.59Q821.84 466.72 821.98 467.04Q822.12 467.36 822.44 467.55Q822.75 467.74 823.34 467.74Q823.78 467.74 824.49 467.64M832.70 470L829.94 470L825.18 454.44L827.91 454.44L830.38 463.42L831.31 466.76Q831.36 466.51 832.11 463.55L834.59 454.44L837.30 454.44L839.63 463.47L840.40 466.44L841.30 463.44L843.96 454.44L846.53 454.44L841.66 470L838.92 470L836.45 460.68L835.85 458.03L832.70 470M858.89 468.08Q857.42 469.33 856.07 469.84Q854.71 470.35 853.16 470.35Q850.60 470.35 849.22 469.10Q847.84 467.85 847.84 465.90Q847.84 464.76 848.36 463.81Q848.88 462.87 849.73 462.29Q850.57 461.72 851.62 461.43Q852.40 461.23 853.97 461.04Q857.16 460.65 858.67 460.13Q858.68 459.58 858.68 459.44Q858.68 457.83 857.94 457.17Q856.93 456.27 854.93 456.27Q853.07 456.27 852.19 456.93Q851.30 457.58 850.88 459.23L848.30 458.88Q848.65 457.23 849.46 456.21Q850.26 455.19 851.78 454.64Q853.31 454.09 855.31 454.09Q857.31 454.09 858.55 454.56Q859.80 455.03 860.38 455.74Q860.97 456.45 861.20 457.53Q861.34 458.21 861.34 459.97L861.34 463.48Q861.34 467.16 861.50 468.13Q861.67 469.11 862.17 470L859.42 470Q859.01 469.18 858.89 468.08M858.67 463.16L858.67 462.19Q857.23 462.78 854.36 463.19Q852.74 463.42 852.06 463.72Q851.39 464.01 851.02 464.57Q850.66 465.14 850.66 465.83Q850.66 466.88 851.46 467.58Q852.25 468.29 853.79 468.29Q855.31 468.29 856.50 467.62Q857.69 466.95 858.24 465.80Q858.67 464.90 858.67 463.16M868.03 470L865.39 470L865.39 454.44L867.77 454.44L867.77 456.80Q868.67 455.15 869.44 454.62Q870.21 454.09 871.14 454.09Q872.47 454.09 873.85 454.94L872.94 457.39Q871.97 456.82 871 456.82Q870.14 456.82 869.45 457.34Q868.76 457.86 868.47 458.78Q868.03 460.19 868.03 461.86L868.03 470M886.06 464.99L888.79 465.33Q888.14 467.71 886.40 469.03Q884.66 470.35 881.95 470.35Q878.53 470.35 876.53 468.25Q874.53 466.15 874.53 462.35Q874.53 458.43 876.56 456.26Q878.58 454.09 881.80 454.09Q884.92 454.09 886.90 456.22Q888.87 458.34 888.87 462.19Q888.87 462.43 888.86 462.90L877.26 462.90Q877.40 465.46 878.71 466.82Q880.01 468.18 881.96 468.18Q883.41 468.18 884.44 467.42Q885.46 466.66 886.06 464.99M877.40 460.73L886.09 460.73Q885.92 458.76 885.10 457.78Q883.84 456.26 881.83 456.26Q880.01 456.26 878.77 457.48Q877.54 458.69 877.40 460.73M906.06 470L903.30 470L898.54 454.44L901.27 454.44L903.74 463.42L904.67 466.76Q904.72 466.51 905.47 463.55L907.95 454.44L910.66 454.44L912.99 463.47L913.76 466.44L914.66 463.44L917.32 454.44L919.89 454.44L915.02 470L912.28 470L909.81 460.68L909.21 458.03L906.06 470M924.75 451.56L922.11 451.56L922.11 448.53L924.75 448.53L924.75 451.56M924.75 470L922.11 470L922.11 454.44L924.75 454.44L924.75 470M934.52 467.64L934.90 469.97Q933.79 470.21 932.91 470.21Q931.47 470.21 930.68 469.75Q929.89 469.30 929.57 468.56Q929.25 467.82 929.25 465.44L929.25 456.49L927.31 456.49L927.31 454.44L929.25 454.44L929.25 450.59L931.87 449.01L931.87 454.44L934.52 454.44L934.52 456.49L931.87 456.49L931.87 465.59Q931.87 466.72 932.01 467.04Q932.15 467.36 932.46 467.55Q932.78 467.74 933.36 467.74Q933.80 467.74 934.52 467.64M939.73 470L937.10 470L937.10 448.53L939.73 448.53L939.73 456.23Q941.58 454.09 944.39 454.09Q946.12 454.09 947.40 454.77Q948.67 455.45 949.22 456.66Q949.77 457.86 949.77 460.14L949.77 470L947.13 470L947.13 460.14Q947.13 458.16 946.27 457.26Q945.42 456.36 943.85 456.36Q942.68 456.36 941.65 456.97Q940.61 457.58 940.17 458.62Q939.73 459.66 939.73 461.49L939.73 470M977.78 462.47L980.62 463.19Q979.72 466.69 977.40 468.53Q975.08 470.37 971.73 470.37Q968.25 470.37 966.08 468.95Q963.90 467.54 962.77 464.86Q961.63 462.18 961.63 459.10Q961.63 455.75 962.92 453.25Q964.20 450.75 966.56 449.46Q968.93 448.16 971.77 448.16Q974.99 448.16 977.19 449.80Q979.39 451.44 980.25 454.41L977.45 455.07Q976.71 452.73 975.29 451.66Q973.86 450.59 971.71 450.59Q969.24 450.59 967.57 451.78Q965.91 452.96 965.24 454.96Q964.56 456.96 964.56 459.09Q964.56 461.83 965.36 463.87Q966.16 465.91 967.84 466.92Q969.53 467.93 971.49 467.93Q973.88 467.93 975.53 466.56Q977.19 465.18 977.78 462.47M986.36 470L983.72 470L983.72 448.53L986.36 448.53L986.36 470M1000.60 468.08Q999.13 469.33 997.78 469.84Q996.42 470.35 994.87 470.35Q992.31 470.35 990.93 469.10Q989.55 467.85 989.55 465.90Q989.55 464.76 990.07 463.81Q990.59 462.87 991.44 462.29Q992.28 461.72 993.33 461.43Q994.11 461.23 995.68 461.04Q998.87 460.65 1000.38 460.13Q1000.39 459.58 1000.39 459.44Q1000.39 457.83 999.65 457.17Q998.64 456.27 996.64 456.27Q994.78 456.27 993.90 456.93Q993.01 457.58 992.59 459.23L990.01 458.88Q990.36 457.23 991.16 456.21Q991.97 455.19 993.49 454.64Q995.02 454.09 997.02 454.09Q999.02 454.09 1000.26 454.56Q1001.51 455.03 1002.09 455.74Q1002.68 456.45 1002.91 457.53Q1003.04 458.21 1003.04 459.97L1003.04 463.48Q1003.04 467.16 1003.21 468.13Q1003.38 469.11 1003.88 470L1001.13 470Q1000.72 469.18 1000.60 468.08M1000.38 463.16L1000.38 462.19Q998.94 462.78 996.07 463.19Q994.45 463.42 993.77 463.72Q993.10 464.01 992.73 464.57Q992.37 465.14 992.37 465.83Q992.37 466.88 993.16 467.58Q993.96 468.29 995.50 468.29Q997.02 468.29 998.21 467.62Q999.40 466.95 999.95 465.80Q1000.38 464.90 1000.38 463.16M1019.69 470L1017.33 470L1017.33 467.71Q1015.51 470.35 1012.39 470.35Q1011.01 470.35 1009.82 469.82Q1008.63 469.30 1008.05 468.50Q1007.47 467.70 1007.23 466.54Q1007.07 465.77 1007.07 464.08L1007.07 454.44L1009.71 454.44L1009.71 463.07Q1009.71 465.14 1009.87 465.85Q1010.12 466.89 1010.93 467.49Q1011.73 468.08 1012.92 468.08Q1014.10 468.08 1015.14 467.47Q1016.18 466.87 1016.62 465.82Q1017.05 464.77 1017.05 462.78L1017.05 454.44L1019.69 454.44L1019.69 470M1036.35 470L1033.91 470L1033.91 468.04Q1032.43 470.35 1029.56 470.35Q1027.70 470.35 1026.14 469.33Q1024.58 468.30 1023.72 466.46Q1022.86 464.62 1022.86 462.24Q1022.86 459.91 1023.64 458.01Q1024.42 456.11 1025.97 455.10Q1027.52 454.09 1029.44 454.09Q1030.85 454.09 1031.95 454.69Q1033.04 455.28 1033.73 456.23L1033.73 448.53L1036.35 448.53L1036.35 470M1025.57 462.24Q1025.57 465.22 1026.83 466.70Q1028.09 468.18 1029.81 468.18Q1031.54 468.18 1032.74 466.77Q1033.95 465.36 1033.95 462.46Q1033.95 459.26 1032.72 457.77Q1031.49 456.27 1029.69 456.27Q1027.93 456.27 1026.75 457.71Q1025.57 459.15 1025.57 462.24M1051.15 464.99L1053.87 465.33Q1053.23 467.71 1051.49 469.03Q1049.74 470.35 1047.03 470.35Q1043.62 470.35 1041.62 468.25Q1039.62 466.15 1039.62 462.35Q1039.62 458.43 1041.64 456.26Q1043.66 454.09 1046.89 454.09Q1050.01 454.09 1051.98 456.22Q1053.96 458.34 1053.96 462.19Q1053.96 462.43 1053.95 462.90L1042.35 462.90Q1042.49 465.46 1043.80 466.82Q1045.10 468.18 1047.05 468.18Q1048.50 468.18 1049.52 467.42Q1050.55 466.66 1051.15 464.99M1042.49 460.73L1051.18 460.73Q1051 458.76 1050.18 457.78Q1048.92 456.26 1046.92 456.26Q1045.10 456.26 1043.86 457.48Q1042.62 458.69 1042.49 460.73M1060.94 470L1057.93 470L1057.93 467L1060.94 467" fill="#f5f4fb" fill-opacity="0.92"/>
  <path d="M460.79 512L458.06 512L458.06 490.53L460.98 490.53L472.26 507.39L472.26 490.53L474.98 490.53L474.98 512L472.07 512L460.79 495.13L460.79 512M478.44 504.22Q478.44 499.90 480.84 497.82Q482.85 496.09 485.73 496.09Q488.94 496.09 490.98 498.19Q493.02 500.30 493.02 504Q493.02 507 492.11 508.73Q491.21 510.45 489.49 511.40Q487.77 512.35 485.73 512.35Q482.47 512.35 480.45 510.26Q478.44 508.16 478.44 504.22M481.15 504.22Q481.15 507.21 482.45 508.70Q483.76 510.18 485.73 510.18Q487.70 510.18 489 508.69Q490.31 507.20 490.31 504.13Q490.31 501.25 488.99 499.76Q487.68 498.27 485.73 498.27Q483.76 498.27 482.45 499.75Q481.15 501.23 481.15 504.22M507.09 493.56L504.46 493.56L504.46 490.53L507.09 490.53L507.09 493.56M507.09 512L504.46 512L504.46 496.44L507.09 496.44L507.09 512M513.74 512L511.11 512L511.11 496.44L513.48 496.44L513.48 498.66Q515.19 496.09 518.43 496.09Q519.84 496.09 521.02 496.60Q522.19 497.10 522.78 497.92Q523.37 498.74 523.60 499.87Q523.75 500.60 523.75 502.43L523.75 512L521.11 512L521.11 502.54Q521.11 500.93 520.80 500.13Q520.50 499.33 519.71 498.85Q518.93 498.38 517.87 498.38Q516.19 498.38 514.97 499.45Q513.74 500.52 513.74 503.50L513.74 512M526.74 507.36L529.34 506.95Q529.56 508.51 530.57 509.35Q531.57 510.18 533.37 510.18Q535.19 510.18 536.07 509.44Q536.95 508.70 536.95 507.71Q536.95 506.81 536.17 506.30Q535.63 505.95 533.47 505.41Q530.57 504.68 529.45 504.14Q528.33 503.61 527.75 502.66Q527.18 501.72 527.18 500.57Q527.18 499.53 527.65 498.65Q528.13 497.76 528.95 497.18Q529.56 496.72 530.63 496.41Q531.69 496.09 532.90 496.09Q534.73 496.09 536.12 496.62Q537.50 497.15 538.16 498.05Q538.82 498.95 539.07 500.46L536.49 500.81Q536.32 499.61 535.47 498.93Q534.63 498.26 533.09 498.26Q531.28 498.26 530.50 498.86Q529.72 499.46 529.72 500.27Q529.72 500.78 530.05 501.19Q530.37 501.61 531.06 501.89Q531.45 502.04 533.39 502.57Q536.18 503.31 537.29 503.79Q538.40 504.27 539.03 505.17Q539.66 506.08 539.66 507.43Q539.66 508.75 538.89 509.91Q538.12 511.08 536.67 511.71Q535.22 512.35 533.39 512.35Q530.35 512.35 528.76 511.09Q527.18 509.83 526.74 507.36M548.55 509.64L548.93 511.97Q547.81 512.21 546.94 512.21Q545.50 512.21 544.71 511.75Q543.92 511.30 543.60 510.56Q543.27 509.82 543.27 507.44L543.27 498.49L541.34 498.49L541.34 496.44L543.27 496.44L543.27 492.59L545.90 491.01L545.90 496.44L548.55 496.44L548.55 498.49L545.90 498.49L545.90 507.59Q545.90 508.72 546.04 509.04Q546.17 509.36 546.49 509.55Q546.80 509.74 547.39 509.74Q547.83 509.74 548.55 509.64M561.28 510.08Q559.81 511.33 558.46 511.84Q557.10 512.35 555.55 512.35Q552.99 512.35 551.61 511.10Q550.23 509.85 550.23 507.90Q550.23 506.76 550.75 505.81Q551.27 504.87 552.11 504.29Q552.96 503.72 554.01 503.43Q554.79 503.23 556.35 503.04Q559.55 502.65 561.06 502.13Q561.07 501.58 561.07 501.44Q561.07 499.83 560.32 499.17Q559.31 498.27 557.32 498.27Q555.46 498.27 554.58 498.93Q553.69 499.58 553.26 501.23L550.69 500.88Q551.04 499.23 551.84 498.21Q552.65 497.19 554.17 496.64Q555.70 496.09 557.70 496.09Q559.69 496.09 560.94 496.56Q562.19 497.03 562.77 497.74Q563.36 498.45 563.59 499.53Q563.72 500.21 563.72 501.97L563.72 505.48Q563.72 509.16 563.89 510.13Q564.06 511.11 564.56 512L561.80 512Q561.39 511.18 561.28 510.08M561.06 505.16L561.06 504.19Q559.62 504.78 556.75 505.19Q555.12 505.42 554.45 505.72Q553.78 506.01 553.41 506.57Q553.04 507.14 553.04 507.83Q553.04 508.88 553.84 509.58Q554.64 510.29 556.18 510.29Q557.70 510.29 558.89 509.62Q560.08 508.95 560.63 507.80Q561.06 506.90 561.06 505.16M570.39 512L567.75 512L567.75 490.53L570.39 490.53L570.39 512M577.05 512L574.42 512L574.42 490.53L577.05 490.53L577.05 512M580.09 507.36L582.69 506.95Q582.91 508.51 583.92 509.35Q584.92 510.18 586.72 510.18Q588.54 510.18 589.42 509.44Q590.30 508.70 590.30 507.71Q590.30 506.81 589.52 506.30Q588.98 505.95 586.82 505.41Q583.92 504.68 582.80 504.14Q581.68 503.61 581.10 502.66Q580.52 501.72 580.52 500.57Q580.52 499.53 581 498.65Q581.48 497.76 582.30 497.18Q582.91 496.72 583.97 496.41Q585.04 496.09 586.25 496.09Q588.08 496.09 589.47 496.62Q590.85 497.15 591.51 498.05Q592.17 498.95 592.42 500.46L589.84 500.81Q589.67 499.61 588.82 498.93Q587.98 498.26 586.44 498.26Q584.63 498.26 583.85 498.86Q583.07 499.46 583.07 500.27Q583.07 500.78 583.40 501.19Q583.72 501.61 584.41 501.89Q584.80 502.04 586.74 502.57Q589.53 503.31 590.64 503.79Q591.75 504.27 592.38 505.17Q593.01 506.08 593.01 507.43Q593.01 508.75 592.24 509.91Q591.47 511.08 590.02 511.71Q588.57 512.35 586.74 512.35Q583.70 512.35 582.11 511.09Q580.52 509.83 580.09 507.36M598.32 512L596.83 512L596.83 509L599.83 509L599.83 512Q599.83 513.66 599.25 514.67Q598.66 515.69 597.39 516.25L596.65 515.12Q597.49 514.75 597.88 514.04Q598.28 513.33 598.32 512M615.43 493.59L612.80 493.59L612.80 490.53L615.43 490.53L615.43 493.59M609.46 518.04L609.95 515.79Q610.74 516 611.20 516Q612 516 612.40 515.46Q612.80 514.93 612.80 512.79L612.80 496.44L615.43 496.44L615.43 512.85Q615.43 515.72 614.69 516.85Q613.73 518.31 611.52 518.31Q610.45 518.31 609.46 518.04M632.03 512L629.67 512L629.67 509.71Q627.85 512.35 624.73 512.35Q623.36 512.35 622.16 511.82Q620.97 511.30 620.39 510.50Q619.81 509.70 619.58 508.54Q619.42 507.77 619.42 506.08L619.42 496.44L622.05 496.44L622.05 505.07Q622.05 507.14 622.21 507.85Q622.46 508.89 623.27 509.49Q624.07 510.08 625.26 510.08Q626.45 510.08 627.49 509.47Q628.53 508.87 628.96 507.82Q629.39 506.77 629.39 504.78L629.39 496.44L632.03 496.44L632.03 512M635.10 507.36L637.71 506.95Q637.93 508.51 638.94 509.35Q639.94 510.18 641.74 510.18Q643.56 510.18 644.44 509.44Q645.31 508.70 645.31 507.71Q645.31 506.81 644.54 506.30Q644 505.95 641.84 505.41Q638.94 504.68 637.82 504.14Q636.70 503.61 636.12 502.66Q635.54 501.72 635.54 500.57Q635.54 499.53 636.02 498.65Q636.50 497.76 637.32 497.18Q637.93 496.72 638.99 496.41Q640.06 496.09 641.27 496.09Q643.10 496.09 644.49 496.62Q645.87 497.15 646.53 498.05Q647.19 498.95 647.44 500.46L644.86 500.81Q644.69 499.61 643.84 498.93Q643 498.26 641.46 498.26Q639.65 498.26 638.87 498.86Q638.09 499.46 638.09 500.27Q638.09 500.78 638.42 501.19Q638.74 501.61 639.43 501.89Q639.82 502.04 641.76 502.57Q644.55 503.31 645.66 503.79Q646.77 504.27 647.40 505.17Q648.02 506.08 648.02 507.43Q648.02 508.75 647.26 509.91Q646.49 511.08 645.04 511.71Q643.59 512.35 641.76 512.35Q638.72 512.35 637.13 511.09Q635.54 509.83 635.10 507.36M656.92 509.64L657.30 511.97Q656.18 512.21 655.31 512.21Q653.87 512.21 653.08 511.75Q652.29 511.30 651.97 510.56Q651.64 509.82 651.64 507.44L651.64 498.49L649.71 498.49L649.71 496.44L651.64 496.44L651.64 492.59L654.27 491.01L654.27 496.44L656.92 496.44L656.92 498.49L654.27 498.49L654.27 507.59Q654.27 508.72 654.40 509.04Q654.54 509.36 654.86 509.55Q655.17 509.74 655.76 509.74Q656.20 509.74 656.92 509.64M677.98 510.08Q676.52 511.33 675.16 511.84Q673.81 512.35 672.25 512.35Q669.69 512.35 668.31 511.10Q666.94 509.85 666.94 507.90Q666.94 506.76 667.46 505.81Q667.98 504.87 668.82 504.29Q669.66 503.72 670.72 503.43Q671.49 503.23 673.06 503.04Q676.25 502.65 677.76 502.13Q677.78 501.58 677.78 501.44Q677.78 499.83 677.03 499.17Q676.02 498.27 674.03 498.27Q672.17 498.27 671.28 498.93Q670.39 499.58 669.97 501.23L667.39 500.88Q667.74 499.23 668.55 498.21Q669.35 497.19 670.88 496.64Q672.40 496.09 674.41 496.09Q676.40 496.09 677.64 496.56Q678.89 497.03 679.48 497.74Q680.06 498.45 680.30 499.53Q680.43 500.21 680.43 501.97L680.43 505.48Q680.43 509.16 680.60 510.13Q680.76 511.11 681.26 512L678.51 512Q678.10 511.18 677.98 510.08M677.76 505.16L677.76 504.19Q676.33 504.78 673.45 505.19Q671.83 505.42 671.15 505.72Q670.48 506.01 670.11 506.57Q669.75 507.14 669.75 507.83Q669.75 508.88 670.55 509.58Q671.35 510.29 672.88 510.29Q674.41 510.29 675.59 509.62Q676.78 508.95 677.34 507.80Q677.76 506.90 677.76 505.16M695.43 512L692.79 512L692.79 490.53L695.43 490.53L695.43 512M702.17 493.56L699.53 493.56L699.53 490.53L702.17 490.53L702.17 493.56M702.17 512L699.53 512L699.53 496.44L702.17 496.44L702.17 512M708.82 512L706.18 512L706.18 496.44L708.55 496.44L708.55 498.66Q710.27 496.09 713.50 496.09Q714.91 496.09 716.09 496.60Q717.27 497.10 717.85 497.92Q718.44 498.74 718.67 499.87Q718.82 500.60 718.82 502.43L718.82 512L716.18 512L716.18 502.54Q716.18 500.93 715.88 500.13Q715.57 499.33 714.79 498.85Q714 498.38 712.95 498.38Q711.26 498.38 710.04 499.45Q708.82 500.52 708.82 503.50L708.82 512M725.52 512L722.88 512L722.88 490.53L725.52 490.53L725.52 502.77L731.76 496.44L735.17 496.44L729.22 502.21L735.77 512L732.52 512L727.38 504.05L725.52 505.83L725.52 512M741.61 512L738.61 512L738.61 509L741.61 509" fill="#f5f4fb" fill-opacity="0.92"/>
</svg>
